<svg width="41" height="41" viewBox="0 0 41 41" fill="none" xmlns="http://www.w3.org/2000/svg">
<g clip-path="url(#clip0_415_9719)">
<g clip-path="url(#clip1_415_9719)">
<path d="M20.9805 37.7109C30.6455 37.7109 38.4805 29.8759 38.4805 20.2109C38.4805 10.5459 30.6455 2.71094 20.9805 2.71094C11.3155 2.71094 3.48047 10.5459 3.48047 20.2109C3.48047 29.8759 11.3155 37.7109 20.9805 37.7109Z" fill="#0074BA"/>
<path d="M8.48047 17.8616V18.7491C8.48047 19.8616 9.86797 21.9741 10.9805 21.9741H14.5555C15.718 21.9741 16.6555 22.9116 16.6555 24.0741V26.2241C16.6555 26.6741 17.0305 27.0491 17.4805 27.0491H17.918C18.1805 27.0491 18.543 27.2241 18.543 27.9241V30.7366C18.543 31.4741 19.143 32.0866 19.893 32.0866H20.5055C20.868 32.0866 21.2055 31.9491 21.4555 31.6866L23.5805 29.5616L23.6555 26.5366C23.668 26.1241 24.0055 25.7991 24.418 25.7991H24.843L27.2305 22.2366C27.3555 21.9866 27.418 21.7116 27.418 21.4366V20.9866C27.418 20.7866 27.2555 20.6116 27.0555 20.5866C25.818 20.3866 23.643 19.3741 23.643 18.1116V17.4866C23.643 15.7366 25.073 15.7366 25.4355 15.7366H25.443C25.793 15.7366 26.068 16.0241 26.068 16.3616V17.4241C26.068 17.8741 26.443 18.2491 26.893 18.2491H27.3305L28.768 17.5241C29.4055 17.1991 29.518 16.3366 28.968 15.8741L28.6805 15.6366C28.293 15.2991 28.543 14.4741 29.2055 14.4741H31.143C32.643 14.4741 33.643 16.9116 33.643 18.4116V19.0866C33.643 19.2991 33.818 19.4741 34.0305 19.4741H34.4555C34.7305 19.4741 34.9805 19.3366 35.1305 19.1116L37.7467 15.1828C36.8518 12.2087 35.1828 9.52572 32.9104 7.40845C30.6381 5.29119 27.8441 3.81564 24.8142 3.13281L23.5555 4.42406H22.293L21.4555 3.58656C21.193 3.32406 20.8305 3.17406 20.4555 3.17406H18.8555C18.6305 3.17406 18.418 3.22406 18.2305 3.32406L16.3555 4.26156C16.254 4.31117 16.1679 4.38735 16.1063 4.48199C16.0446 4.57663 16.0098 4.68621 16.0055 4.79906C15.9755 5.39906 15.9867 5.61531 15.9992 5.87781C16.008 6.04781 16.018 6.23781 16.018 6.56156C16.018 6.94906 16.4055 6.99906 16.7055 6.98656C17.018 6.96156 17.268 6.68656 17.268 6.37406V6.19906C17.268 5.86156 17.4055 5.54906 17.6305 5.31156L17.9805 4.96156C18.7355 4.80906 18.6992 5.58906 18.6605 6.41781C18.6517 6.60531 18.643 6.79281 18.643 6.97406C18.643 7.69906 18.1555 8.19906 17.418 8.19906H15.443C15.0842 8.19156 14.7055 8.02906 14.3342 7.87031C14.0992 7.77031 13.8667 7.67031 13.643 7.61156C13.118 7.48656 12.4055 7.63656 12.4055 8.62406V9.01156C12.4055 9.24906 12.218 9.44906 11.968 9.44906C11.7492 9.44906 11.5393 9.53598 11.3846 9.6907C11.2299 9.84542 11.143 10.0553 11.143 10.2741V11.7741C11.143 12.2116 11.5055 12.5741 11.9555 12.5741H12.6805C13.1305 12.5741 13.443 11.9616 13.443 11.5116L13.493 11.1366C13.493 10.8991 13.6805 10.6991 13.9305 10.6991H15.143C15.2555 10.6991 15.8305 10.7116 16.2805 11.0866L16.8305 11.5116C17.118 11.7991 17.493 11.9491 17.893 11.9491H18.068C18.3555 11.9491 18.618 11.8116 18.768 11.5741L19.543 10.4241C19.693 10.1991 19.943 10.0741 20.2055 10.0741H20.668C20.868 10.0741 21.0305 10.2366 21.0305 10.4366V11.3366C21.0305 11.6741 21.3055 11.9491 21.643 11.9491H22.1055C22.893 11.9491 23.543 12.5866 23.543 13.3741C23.543 13.7866 23.093 14.0366 22.7305 13.8241C22.068 13.4241 20.943 13.1116 20.3805 13.2491C19.8305 13.3741 18.6305 14.4616 18.6305 14.4616C18.6305 14.4616 17.218 14.7866 17.2555 14.0616V13.7116C17.268 13.3741 16.943 13.2241 16.6555 13.2241H15.3555C14.968 13.2241 14.593 13.3741 14.318 13.6491L13.918 14.0491C13.643 14.3241 13.2805 14.4741 12.893 14.4741H11.568C11.1305 14.4616 10.7055 14.6366 10.4055 14.9491L9.06797 16.3616C8.69297 16.7616 8.48047 17.2991 8.48047 17.8616ZM27.893 26.4616C27.5305 26.4616 27.2305 26.7616 27.2305 27.1241V28.4491C27.2305 28.8116 27.5305 29.1116 27.893 29.1116C28.2555 29.1116 28.5555 28.8116 28.5555 28.4491V27.1241C28.5555 26.7491 28.2555 26.4616 27.893 26.4616Z" fill="#00D26A"/>
</g>
</g>
<defs>
<clipPath id="clip0_415_9719">
<rect x="0.980469" y="0.210938" width="40" height="40" rx="20" fill="white"/>
</clipPath>
<clipPath id="clip1_415_9719">
<rect width="40" height="40" fill="white" transform="translate(0.980469 0.210938)"/>
</clipPath>
</defs>
</svg>
