<svg width="40" height="41" viewBox="0 0 40 41" fill="none" xmlns="http://www.w3.org/2000/svg">
<g clip-path="url(#clip0_415_11145)">
<g clip-path="url(#clip1_415_11145)">
<path d="M20 38.0312C29.665 38.0312 37.5 30.1962 37.5 20.5312C37.5 10.8663 29.665 3.03125 20 3.03125C10.335 3.03125 2.5 10.8663 2.5 20.5312C2.5 30.1962 10.335 38.0312 20 38.0312Z" fill="#0074BA"/>
<path d="M5.63797 10.5312H8.90047C10.2005 10.5312 11.2505 11.5813 11.2505 12.8813V14.0938C11.2505 15.0188 11.613 15.9188 12.2505 16.5938L13.4255 17.8313C13.7005 18.1188 13.8505 18.5062 13.8505 18.9062V19.4937C13.8505 20.1313 14.2505 20.6938 14.8505 20.8938L17.188 21.6938C17.323 21.7437 17.4692 21.7775 17.6142 21.7938L21.1017 22.9563C21.2017 23.0063 21.3142 23.0312 21.4267 23.0312H23.1267C23.4767 23.0312 23.7517 23.3062 23.7517 23.6562V23.8063C23.7517 24.0813 23.5267 24.2938 23.2642 24.2938C22.8392 24.2938 22.5017 24.6313 22.5017 25.0563V27.6187C22.5017 28.5312 23.2517 29.2812 24.1642 29.2812C24.6267 29.2812 25.0017 29.6562 25.0017 30.1187V34.6812C25.0017 35.1562 25.3767 35.5312 25.8517 35.5312C26.1017 35.5312 26.3392 35.4188 26.5017 35.2313L32.1517 28.4438C32.3642 28.1812 32.4892 27.8438 32.4892 27.4937V27.0063C32.4892 26.1812 31.8267 25.5187 31.0142 25.5187H30.7142C30.5219 25.5187 30.3375 25.4424 30.2016 25.3064C30.0656 25.1704 29.9892 24.986 29.9892 24.7938V24.1437C29.9892 23.4562 29.6017 22.8312 28.9892 22.5187L28.3767 22.2188C27.7892 21.9312 27.1517 21.7812 26.5017 21.7812H23.2267C22.8142 21.7812 22.4892 21.4438 22.4892 21.0438C22.4892 20.7687 22.2642 20.5312 21.9767 20.5312H21.7642C21.4892 20.5312 21.2517 20.3062 21.2517 20.0188V19.9062C21.2517 19.5562 20.9767 19.2812 20.6267 19.2812C20.2767 19.2812 20.0017 19.5562 20.0017 19.9062V20.0188C20.0017 20.3687 19.7017 20.5312 19.3517 20.5312H18.7505L18.7242 20.5563H18.5867C18.2971 20.5463 18.0226 20.4251 17.82 20.2179C17.6175 20.0108 17.5026 19.7335 17.4992 19.4438V18.3563C17.4992 17.4813 18.1992 16.7812 19.0742 16.7812H20.2367C20.7992 16.7812 21.2492 17.2313 21.2492 17.7938C21.2492 17.9188 21.3492 18.0312 21.4867 18.0312H21.7742C22.1742 18.0312 22.4992 17.7188 22.4992 17.3188C22.4992 16.9688 22.5867 16.6313 22.7742 16.3313L26.0742 10.8312C26.1742 10.6437 26.3867 10.5312 26.5992 10.5312H28.1242C28.4742 10.5312 28.7492 10.2562 28.7492 9.90625C28.7492 9.55625 28.4742 9.28125 28.1242 9.28125H26.5117C26.4298 9.28225 26.3485 9.26608 26.2731 9.23379C26.1978 9.2015 26.13 9.1538 26.0742 9.09375L25.3367 8.35625C25.1225 8.13987 25.0013 7.84826 24.9992 7.54375C24.9927 7.33926 24.9069 7.14532 24.7599 7.003C24.6129 6.86067 24.4163 6.78115 24.2117 6.78125H23.9867C23.8367 6.78125 23.6992 6.71875 23.5992 6.61875L23.4617 6.48125C23.0992 6.13125 23.3367 5.53125 23.8367 5.53125H25.6367C26.0992 5.53125 26.5617 5.69375 26.9242 5.98125L31.7117 9.80625C32.2867 10.2688 32.9992 10.5312 33.7492 10.5312L34.3642 10.5337C32.4099 7.72931 29.6795 5.55628 26.508 4.28125H19.888C19.188 4.28125 18.5505 4.66875 18.238 5.29375L17.663 6.43125C17.563 6.64375 17.3505 6.78125 17.113 6.78125H16.9005C16.563 6.78125 16.238 6.51875 16.2505 6.16875C16.2526 6.08549 16.2381 6.00265 16.2076 5.92514C16.1771 5.84763 16.1314 5.77704 16.073 5.71757C16.0147 5.6581 15.9451 5.61095 15.8682 5.57895C15.7913 5.54694 15.7088 5.53072 15.6255 5.53125H13.438C12.9242 5.53125 12.4217 5.31625 12.0617 4.93125C9.49313 6.24265 7.28663 8.16583 5.63672 10.5312M23.7505 9.90625C23.7505 10.2562 23.4755 10.5312 23.1255 10.5312C22.7755 10.5312 22.5005 10.8063 22.5005 11.1562C22.5005 11.5062 22.2255 11.7812 21.8755 11.7812C21.5255 11.7812 21.2505 11.5062 21.2505 11.1562C21.2505 10.8063 20.9755 10.5312 20.6255 10.5312H19.3755C19.0255 10.5312 18.7505 10.2562 18.7505 9.90625C18.7505 9.55625 19.0255 9.28125 19.3755 9.28125H20.6255C20.9755 9.28125 21.2505 9.00625 21.2505 8.65625C21.2505 8.30625 21.5255 8.03125 21.8755 8.03125C22.2255 8.03125 22.5005 8.30625 22.5005 8.65625C22.5005 9.00625 22.7755 9.28125 23.1255 9.28125C23.4755 9.28125 23.7505 9.55625 23.7505 9.90625Z" fill="#00D26A"/>
</g>
</g>
<defs>
<clipPath id="clip0_415_11145">
<rect y="0.53125" width="40" height="40" rx="20" fill="white"/>
</clipPath>
<clipPath id="clip1_415_11145">
<rect width="40" height="40" fill="white" transform="translate(0 0.53125)"/>
</clipPath>
</defs>
</svg>
