<svg width="41" height="41" viewBox="0 0 41 41" fill="none" xmlns="http://www.w3.org/2000/svg">
<g clip-path="url(#clip0_415_10847)">
<g clip-path="url(#clip1_415_10847)">
<path d="M20.9805 38.1484C30.6455 38.1484 38.4805 30.3134 38.4805 20.6484C38.4805 10.9834 30.6455 3.14844 20.9805 3.14844C11.3155 3.14844 3.48047 10.9834 3.48047 20.6484C3.48047 30.3134 11.3155 38.1484 20.9805 38.1484Z" fill="#0074BA"/>
<path d="M6.61844 10.6484H9.88094C11.1809 10.6484 12.2309 11.6984 12.2309 12.9984V14.2109C12.2309 15.1359 12.5934 16.0359 13.2309 16.7109L14.4059 17.9484C14.6809 18.2359 14.8309 18.6234 14.8309 19.0234V19.6109C14.8309 20.2484 15.2309 20.8109 15.8309 21.0109L18.1684 21.8109C18.3034 21.8609 18.4497 21.8947 18.5947 21.9109L22.0822 23.0734C22.1822 23.1234 22.2947 23.1484 22.4072 23.1484H24.1072C24.4572 23.1484 24.7322 23.4234 24.7322 23.7734V23.9234C24.7322 24.1984 24.5072 24.4109 24.2447 24.4109C23.8197 24.4109 23.4822 24.7484 23.4822 25.1734V27.7359C23.4822 28.6484 24.2322 29.3984 25.1447 29.3984C25.6072 29.3984 25.9822 29.7734 25.9822 30.2359V34.7984C25.9822 35.2734 26.3572 35.6484 26.8322 35.6484C27.0822 35.6484 27.3197 35.5359 27.4822 35.3484L33.1322 28.5609C33.3447 28.2984 33.4697 27.9609 33.4697 27.6109V27.1234C33.4697 26.2984 32.8072 25.6359 31.9947 25.6359H31.6947C31.5024 25.6359 31.318 25.5596 31.182 25.4236C31.0461 25.2876 30.9697 25.1032 30.9697 24.9109V24.2609C30.9697 23.5734 30.5822 22.9484 29.9697 22.6359L29.3572 22.3359C28.7697 22.0484 28.1322 21.8984 27.4822 21.8984H24.2072C23.7947 21.8984 23.4697 21.5609 23.4697 21.1609C23.4697 20.8859 23.2447 20.6484 22.9572 20.6484H22.7447C22.4697 20.6484 22.2322 20.4234 22.2322 20.1359V20.0234C22.2322 19.6734 21.9572 19.3984 21.6072 19.3984C21.2572 19.3984 20.9822 19.6734 20.9822 20.0234V20.1359C20.9822 20.4859 20.6822 20.6484 20.3322 20.6484H19.7309L19.7047 20.6734H19.5672C19.2776 20.6635 19.003 20.5423 18.8005 20.3351C18.5979 20.1279 18.4831 19.8507 18.4797 19.5609V18.4734C18.4797 17.5984 19.1797 16.8984 20.0547 16.8984H21.2172C21.7797 16.8984 22.2297 17.3484 22.2297 17.9109C22.2297 18.0359 22.3297 18.1484 22.4672 18.1484H22.7547C23.1547 18.1484 23.4797 17.8359 23.4797 17.4359C23.4797 17.0859 23.5672 16.7484 23.7547 16.4484L27.0547 10.9484C27.1547 10.7609 27.3672 10.6484 27.5797 10.6484H29.1047C29.4547 10.6484 29.7297 10.3734 29.7297 10.0234C29.7297 9.67344 29.4547 9.39844 29.1047 9.39844H27.4922C27.4102 9.39944 27.3289 9.38327 27.2536 9.35098C27.1783 9.31869 27.1105 9.27098 27.0547 9.21094L26.3172 8.47344C26.1029 8.25705 25.9818 7.96545 25.9797 7.66094C25.9732 7.45644 25.8874 7.2625 25.7404 7.12018C25.5934 6.97786 25.3968 6.89833 25.1922 6.89844H24.9672C24.8172 6.89844 24.6797 6.83594 24.5797 6.73594L24.4422 6.59844C24.0797 6.24844 24.3172 5.64844 24.8172 5.64844H26.6172C27.0797 5.64844 27.5422 5.81094 27.9047 6.09844L32.6922 9.92344C33.2672 10.3859 33.9797 10.6484 34.7297 10.6484L35.3447 10.6509C33.3904 7.8465 30.66 5.67347 27.4884 4.39844H20.8684C20.1684 4.39844 19.5309 4.78594 19.2184 5.41094L18.6434 6.54844C18.5434 6.76094 18.3309 6.89844 18.0934 6.89844H17.8809C17.5434 6.89844 17.2184 6.63594 17.2309 6.28594C17.2331 6.20268 17.2185 6.11983 17.1881 6.04233C17.1576 5.96482 17.1118 5.89423 17.0535 5.83476C16.9952 5.77528 16.9255 5.72814 16.8487 5.69613C16.7718 5.66413 16.6892 5.64791 16.6059 5.64844H14.4184C13.9047 5.64844 13.4022 5.43344 13.0422 5.04844C10.4736 6.35984 8.26709 8.28302 6.61719 10.6484M24.7309 10.0234C24.7309 10.3734 24.4559 10.6484 24.1059 10.6484C23.7559 10.6484 23.4809 10.9234 23.4809 11.2734C23.4809 11.6234 23.2059 11.8984 22.8559 11.8984C22.5059 11.8984 22.2309 11.6234 22.2309 11.2734C22.2309 10.9234 21.9559 10.6484 21.6059 10.6484H20.3559C20.0059 10.6484 19.7309 10.3734 19.7309 10.0234C19.7309 9.67344 20.0059 9.39844 20.3559 9.39844H21.6059C21.9559 9.39844 22.2309 9.12344 22.2309 8.77344C22.2309 8.42344 22.5059 8.14844 22.8559 8.14844C23.2059 8.14844 23.4809 8.42344 23.4809 8.77344C23.4809 9.12344 23.7559 9.39844 24.1059 9.39844C24.4559 9.39844 24.7309 9.67344 24.7309 10.0234Z" fill="#00D26A"/>
</g>
</g>
<defs>
<clipPath id="clip0_415_10847">
<rect x="0.980469" y="0.648438" width="40" height="40" rx="20" fill="white"/>
</clipPath>
<clipPath id="clip1_415_10847">
<rect width="40" height="40" fill="white" transform="translate(0.980469 0.648438)"/>
</clipPath>
</defs>
</svg>
