<svg width="41" height="41" viewBox="0 0 41 41" fill="none" xmlns="http://www.w3.org/2000/svg">
<g clip-path="url(#clip0_415_9783)">
<g clip-path="url(#clip1_415_9783)">
<path d="M20.9805 38.0898C30.6455 38.0898 38.4805 30.2548 38.4805 20.5898C38.4805 10.9248 30.6455 3.08984 20.9805 3.08984C11.3155 3.08984 3.48047 10.9248 3.48047 20.5898C3.48047 30.2548 11.3155 38.0898 20.9805 38.0898Z" fill="#0074BA"/>
<path d="M5.93172 29.5267L6.66797 28.7017C7.01797 28.3142 7.21797 27.8017 7.21797 27.2767V25.0767C7.21797 24.6642 7.54297 24.3392 7.95547 24.3392C8.24297 24.3392 8.46797 24.1142 8.46797 23.8267V23.0892C8.46797 22.4017 7.90547 21.8392 7.21797 21.8392C6.53047 21.8392 5.96797 21.2767 5.96797 20.5892V19.9517C5.96797 19.6142 6.24297 19.3392 6.58047 19.3392C6.93047 19.3392 7.23047 19.6267 7.20547 19.9767C7.20547 20.3142 7.48047 20.5892 7.81797 20.5892H8.56797C9.20547 20.5892 9.71797 20.0767 9.71797 19.4392V18.7142C9.71797 18.3642 9.99297 18.0892 10.343 18.0892C10.693 18.0892 10.968 18.3642 10.968 18.7142V19.9017C10.968 20.2892 11.2805 20.5892 11.6555 20.5892C11.968 20.5892 12.218 20.8392 12.218 21.1517V22.3142C12.2177 22.4897 12.2767 22.6601 12.3854 22.7979C12.4941 22.9356 12.6462 23.0326 12.8169 23.0731C12.9877 23.1136 13.1671 23.0953 13.3261 23.0211C13.4851 22.9468 13.6144 22.8211 13.693 22.6642L15.718 18.6017C15.7977 18.4481 15.9178 18.3192 16.0654 18.2289C16.213 18.1386 16.3824 18.0903 16.5555 18.0892C16.9555 18.0892 17.3055 18.3517 17.443 18.7267L18.318 21.3392C18.3724 21.502 18.4829 21.6401 18.6297 21.7291C18.7765 21.8181 18.95 21.8521 19.1195 21.8251C19.289 21.7981 19.4435 21.7118 19.5553 21.5817C19.6672 21.4515 19.7293 21.2859 19.7305 21.1142V18.7142C19.7305 18.3642 20.0055 18.0892 20.3555 18.0892C20.7055 18.0892 20.9805 17.8142 20.9805 17.4642V15.6642C20.9805 14.9392 21.568 14.3392 22.3055 14.3392C22.9555 14.3392 23.4805 13.8142 23.468 13.1642V13.0142C23.468 12.3642 22.943 11.8392 22.293 11.8392H21.593C21.243 11.8392 20.968 11.5642 20.968 11.2142C20.968 10.8642 21.243 10.5892 21.593 10.5892H23.6305C24.2305 10.5892 24.718 11.0767 24.718 11.6767V12.4642C24.718 12.8142 24.993 13.0892 25.343 13.0892C25.693 13.0892 25.968 12.8142 25.968 12.4642V11.7392C25.968 10.4142 27.043 9.33922 28.368 9.33922H30.343C30.693 9.33922 30.968 9.06422 30.968 8.71422C30.968 8.36422 30.693 8.08922 30.343 8.08922H26.718C26.3055 8.08922 25.968 7.75172 25.968 7.33922C25.968 7.06422 25.743 6.83922 25.468 6.83922H19.8055C18.943 6.83922 18.093 6.57672 17.3805 6.08922L14.668 4.26172C8.12297 6.79422 3.48047 13.1492 3.48047 20.5892C3.48047 23.8542 4.37422 26.9105 5.93172 29.5267ZM23.4805 23.8892V22.7267C23.4805 22.2392 23.868 21.8392 24.368 21.8142C24.6055 21.8142 24.8305 21.9142 24.993 22.0767L26.9805 24.0642C27.1555 24.2267 27.243 24.4517 27.243 24.6892C27.243 25.1767 26.843 25.5767 26.3555 25.5767H26.1805C26.0555 25.5767 25.9305 25.5517 25.818 25.5017L24.0055 24.6892C23.8485 24.623 23.7147 24.5116 23.6212 24.3691C23.5277 24.2267 23.4787 24.0596 23.4805 23.8892ZM20.318 23.0892H19.1305C18.768 23.0892 18.468 23.3892 18.468 23.7517V24.9392C18.468 25.3017 18.768 25.6017 19.1305 25.6017H20.318C20.6805 25.6017 20.9805 25.3017 20.9805 24.9392V23.7517C20.9805 23.3892 20.6805 23.0892 20.318 23.0892ZM15.9805 24.9642C15.9805 25.3142 16.2555 25.5892 16.6055 25.5892C16.943 25.5892 17.2305 25.3142 17.2305 24.9642V23.7142C17.2305 23.3642 16.9555 23.0892 16.6055 23.0892C16.2555 23.0892 15.9805 23.3642 15.9805 23.7142V24.9642ZM24.468 14.6017L22.4805 16.5892C22.318 16.7517 22.218 16.9767 22.218 17.2142C22.218 17.7017 22.618 18.1017 23.1055 18.1017C23.343 18.1017 23.568 18.0142 23.7305 17.8392L25.718 15.8517C25.8805 15.6892 25.9805 15.4642 25.9805 15.2267C25.9805 14.7392 25.5805 14.3392 25.093 14.3392C24.8555 14.3392 24.6305 14.4267 24.468 14.6017ZM28.7305 32.8392L30.718 30.8517C30.8805 30.6767 31.1055 30.5892 31.343 30.5892C31.8305 30.5892 32.2305 30.9892 32.2305 31.4767C32.2305 31.7142 32.1305 31.9392 31.968 32.1017L29.9805 34.0892C29.818 34.2642 29.593 34.3517 29.3555 34.3517C28.868 34.3517 28.468 33.9517 28.468 33.4642C28.468 33.2267 28.568 33.0017 28.7305 32.8392ZM19.7305 29.0142V30.5517C19.7305 31.2642 20.3055 31.8392 21.018 31.8392H22.9305C23.268 31.8392 23.593 31.9767 23.8305 32.2142L24.343 32.7267C24.5805 32.9642 24.9055 33.1017 25.243 33.1017H26.418C26.9055 33.1017 27.3555 32.8267 27.568 32.3892L28.3305 30.8767C28.418 30.7017 28.468 30.5017 28.468 30.3017V28.9017C28.468 28.4142 28.193 27.9642 27.7555 27.7517L26.243 26.9892C26.068 26.9017 25.868 26.8517 25.668 26.8517H23.6805C23.543 26.8517 23.4055 26.8767 23.268 26.9142L20.593 27.8017C20.0805 27.9767 19.7305 28.4642 19.7305 29.0142Z" fill="#00D26A"/>
</g>
</g>
<defs>
<clipPath id="clip0_415_9783">
<rect x="0.980469" y="0.589844" width="40" height="40" rx="20" fill="white"/>
</clipPath>
<clipPath id="clip1_415_9783">
<rect width="40" height="40" fill="white" transform="translate(0.980469 0.589844)"/>
</clipPath>
</defs>
</svg>
