<svg width="41" height="41" viewBox="0 0 41 41" fill="none" xmlns="http://www.w3.org/2000/svg">
<g clip-path="url(#clip0_415_9056)">
<g clip-path="url(#clip1_415_9056)">
<path d="M20.9688 37.9414C30.6337 37.9414 38.4688 30.1064 38.4688 20.4414C38.4688 10.7764 30.6337 2.94141 20.9688 2.94141C11.3038 2.94141 3.46875 10.7764 3.46875 20.4414C3.46875 30.1064 11.3038 37.9414 20.9688 37.9414Z" fill="#0074BA"/>
<path d="M8.46875 18.092V18.9795C8.46875 20.092 9.85625 22.2045 10.9687 22.2045H14.5437C15.7062 22.2045 16.6437 23.142 16.6437 24.3045V26.4545C16.6437 26.9045 17.0187 27.2795 17.4687 27.2795H17.9062C18.1687 27.2795 18.5312 27.4545 18.5312 28.1545V30.967C18.5312 31.7045 19.1312 32.317 19.8812 32.317H20.4937C20.8562 32.317 21.1937 32.1795 21.4437 31.917L23.5687 29.792L23.6437 26.767C23.6562 26.3545 23.9937 26.0295 24.4062 26.0295H24.8312L27.2187 22.467C27.3437 22.217 27.4062 21.942 27.4062 21.667V21.217C27.4062 21.017 27.2437 20.842 27.0437 20.817C25.8062 20.617 23.6312 19.6045 23.6312 18.342V17.717C23.6312 15.967 25.0612 15.967 25.4237 15.967H25.4312C25.7812 15.967 26.0562 16.2545 26.0562 16.592V17.6545C26.0562 18.1045 26.4312 18.4795 26.8812 18.4795H27.3187L28.7562 17.7545C29.3937 17.4295 29.5062 16.567 28.9562 16.1045L28.6687 15.867C28.2812 15.5295 28.5312 14.7045 29.1937 14.7045H31.1312C32.6312 14.7045 33.6312 17.142 33.6312 18.642V19.317C33.6312 19.5295 33.8062 19.7045 34.0187 19.7045H34.4437C34.7187 19.7045 34.9687 19.567 35.1187 19.342L37.735 15.4133C36.8401 12.4392 35.1711 9.75619 32.8987 7.63892C30.6264 5.52165 27.8324 4.04611 24.8025 3.36328L23.5437 4.65453H22.2812L21.4437 3.81703C21.1812 3.55453 20.8187 3.40453 20.4437 3.40453H18.8437C18.6187 3.40453 18.4062 3.45453 18.2187 3.55453L16.3437 4.49203C16.2423 4.54164 16.1562 4.61782 16.0945 4.71246C16.0329 4.8071 15.9981 4.91668 15.9937 5.02953C15.9637 5.62953 15.975 5.84578 15.9875 6.10828C15.9962 6.27828 16.0062 6.46828 16.0062 6.79203C16.0062 7.17953 16.3937 7.22953 16.6937 7.21703C17.0062 7.19203 17.2562 6.91703 17.2562 6.60453V6.42953C17.2562 6.09203 17.3937 5.77953 17.6187 5.54203L17.9688 5.19203C18.7237 5.03953 18.6875 5.81953 18.6487 6.64828C18.64 6.83578 18.6312 7.02328 18.6312 7.20453C18.6312 7.92953 18.1437 8.42953 17.4062 8.42953H15.4312C15.0725 8.42203 14.6937 8.25953 14.3225 8.10078C14.0875 8.00078 13.855 7.90078 13.6312 7.84203C13.1062 7.71703 12.3937 7.86703 12.3937 8.85453V9.24203C12.3937 9.47953 12.2062 9.67953 11.9562 9.67953C11.7374 9.67953 11.5276 9.76645 11.3729 9.92117C11.2182 10.0759 11.1312 10.2857 11.1312 10.5045V12.0045C11.1312 12.442 11.4937 12.8045 11.9437 12.8045H12.6687C13.1187 12.8045 13.4313 12.192 13.4313 11.742L13.4812 11.367C13.4812 11.1295 13.6687 10.9295 13.9187 10.9295H15.1312C15.2437 10.9295 15.8187 10.942 16.2687 11.317L16.8187 11.742C17.1062 12.0295 17.4812 12.1795 17.8812 12.1795H18.0562C18.3437 12.1795 18.6062 12.042 18.7562 11.8045L19.5312 10.6545C19.6812 10.4295 19.9312 10.3045 20.1937 10.3045H20.6562C20.8562 10.3045 21.0188 10.467 21.0188 10.667V11.567C21.0188 11.9045 21.2937 12.1795 21.6312 12.1795H22.0937C22.8812 12.1795 23.5312 12.817 23.5312 13.6045C23.5312 14.017 23.0812 14.267 22.7187 14.0545C22.0562 13.6545 20.9312 13.342 20.3687 13.4795C19.8187 13.6045 18.6187 14.692 18.6187 14.692C18.6187 14.692 17.2063 15.017 17.2437 14.292V13.942C17.2562 13.6045 16.9312 13.4545 16.6437 13.4545H15.3437C14.9562 13.4545 14.5812 13.6045 14.3062 13.8795L13.9062 14.2795C13.6312 14.5545 13.2687 14.7045 12.8812 14.7045H11.5563C11.1188 14.692 10.6937 14.867 10.3937 15.1795L9.05625 16.592C8.68125 16.992 8.46875 17.5295 8.46875 18.092ZM27.8812 26.692C27.5187 26.692 27.2187 26.992 27.2187 27.3545V28.6795C27.2187 29.042 27.5187 29.342 27.8812 29.342C28.2437 29.342 28.5437 29.042 28.5437 28.6795V27.3545C28.5437 26.9795 28.2437 26.692 27.8812 26.692Z" fill="#00D26A"/>
</g>
</g>
<defs>
<clipPath id="clip0_415_9056">
<rect x="0.96875" y="0.441406" width="40" height="40" rx="20" fill="white"/>
</clipPath>
<clipPath id="clip1_415_9056">
<rect width="40" height="40" fill="white" transform="translate(0.96875 0.441406)"/>
</clipPath>
</defs>
</svg>
