<svg width="25" height="25" viewBox="0 0 25 25" fill="none" xmlns="http://www.w3.org/2000/svg">
<g clip-path="url(#clip0_415_8963)">
<g clip-path="url(#clip1_415_8963)">
<path d="M17.4805 13.25H19.9805V15.25H14.9805V9.25H21.9805C21.9805 8.15 21.0805 7.25 19.9805 7.25H14.9805C13.8805 7.25 12.9805 8.15 12.9805 9.25V15.25C12.9805 16.35 13.8805 17.25 14.9805 17.25H19.9805C21.0805 17.25 21.9805 16.35 21.9805 15.25V11.25H17.4805V13.25ZM3.98047 13.25H8.98047V15.25H3.98047V17.25H8.98047C10.0805 17.25 10.9805 16.35 10.9805 15.25V13.25C10.9805 12.15 10.0805 11.25 8.98047 11.25H5.98047V9.25H10.9805V7.25H3.98047V13.25Z" fill="#2D4156"/>
</g>
</g>
<defs>
<clipPath id="clip0_415_8963">
<rect width="24" height="24" fill="white" transform="translate(0.980469 0.25)"/>
</clipPath>
<clipPath id="clip1_415_8963">
<rect width="24" height="24" fill="white" transform="translate(0.980469 0.25)"/>
</clipPath>
</defs>
</svg>
