<svg width="45" height="45" viewBox="0 0 45 45" fill="none" xmlns="http://www.w3.org/2000/svg">
<rect width="45" height="45" rx="15" fill="#322C2C"/>
<g clip-path="url(#clip0_415_12447)">
<path d="M32.2392 22.07C32.1892 21.56 31.7592 21.18 31.2492 21.18H23.6992C23.1492 21.18 22.6992 21.63 22.6992 22.18V23.89C22.6992 24.44 23.1492 24.89 23.6992 24.89H28.2092C28.0992 25.81 27.4992 27.2 26.1692 28.13C25.3192 28.72 24.1892 29.13 22.6992 29.13C22.6292 29.13 22.5692 29.13 22.4992 29.12C19.9492 29.04 17.7892 27.33 17.0092 24.98C16.7992 24.35 16.6792 23.69 16.6792 23C16.6792 22.31 16.7992 21.64 16.9992 21.02C17.0592 20.84 17.1292 20.66 17.2092 20.48C18.1292 18.41 20.1392 16.95 22.4992 16.88C22.5592 16.87 22.6292 16.87 22.6992 16.87C24.1292 16.87 25.1992 17.34 25.9492 17.86C26.3392 18.13 26.8592 18.07 27.1992 17.74L28.5892 16.38C29.0292 15.95 28.9892 15.22 28.4892 14.86C26.8992 13.69 24.9592 13 22.6992 13C22.6292 13 22.5692 13 22.4992 13.01C18.6692 13.08 15.3792 15.3 13.7692 18.51C13.0892 19.87 12.6992 21.39 12.6992 23C12.6992 24.61 13.0892 26.13 13.7692 27.49H13.7792C15.3892 30.7 18.6792 32.92 22.4992 32.99C22.5692 33 22.6292 33 22.6992 33C25.3992 33 27.6692 32.11 29.3192 30.58C31.2092 28.83 32.2992 26.27 32.2992 23.22C32.2992 22.79 32.2792 22.42 32.2392 22.07Z" fill="white"/>
</g>
<defs>
<clipPath id="clip0_415_12447">
<rect width="24" height="24" fill="white" transform="translate(11 11)"/>
</clipPath>
</defs>
</svg>
