<svg width="41" height="41" viewBox="0 0 41 41" fill="none" xmlns="http://www.w3.org/2000/svg">
<g clip-path="url(#clip0_415_10271)">
<g clip-path="url(#clip1_415_10271)">
<path d="M34.2149 7.35664C30.68 3.8218 25.9802 1.875 20.9811 1.875C15.982 1.875 11.2822 3.8218 7.74727 7.35664C4.21242 10.8916 2.26562 15.5914 2.26562 20.5905C2.26562 25.5895 4.21234 30.2894 7.74727 33.8243C11.2822 37.3592 15.982 39.3059 20.9811 39.3059C25.9802 39.3059 30.68 37.3592 34.2149 33.8243C37.7498 30.2894 39.6966 25.5895 39.6966 20.5905C39.6966 15.5914 37.7498 10.8916 34.2149 7.35664ZM31.1395 19.5358C31.0503 16.5057 30.578 13.6082 29.7671 11.051C31.0891 10.6767 32.3181 10.2121 33.4663 9.65399C35.8132 12.33 37.3151 15.7639 37.5527 19.5358H31.1395ZM19.9264 37.0466C18.2866 36.5818 16.7335 35.0423 15.4695 32.5947C15.3079 32.2811 15.1557 31.9627 15.013 31.6401C15.9187 31.4681 16.863 31.3327 17.8471 31.2371C18.5386 31.1702 19.2321 31.1249 19.9264 31.1013V37.0466ZM22.0358 31.0973C23.7019 31.1486 25.3433 31.3299 26.9488 31.6408C26.8062 31.9632 26.6541 32.2813 26.4927 32.5946C25.2287 35.0422 23.6755 36.5818 22.0358 37.0465V31.0973ZM19.9264 28.9909C19.1686 29.0154 18.4073 29.0633 17.6432 29.1375C16.4627 29.2521 15.3316 29.4205 14.2509 29.6398C13.4757 27.2541 13.0222 24.5209 12.9329 21.6452H19.9264V28.9909ZM12.933 19.5358C13.0223 16.6595 13.4759 13.926 14.2513 11.5401C16.1038 11.9205 18.0004 12.1388 19.9264 12.1944V19.5358H12.933ZM19.9264 10.0845C18.2602 10.0331 16.6188 9.85133 15.013 9.54078C15.1557 9.21816 15.308 8.89985 15.4695 8.58625C16.7335 6.13859 18.2866 4.59898 19.9264 4.1343V10.0845ZM22.0358 4.13438C23.6755 4.59906 25.2287 6.13867 26.4927 8.58633C26.6551 8.90153 26.808 9.22152 26.9513 9.54586C26.1375 9.69883 25.2871 9.82172 24.3975 9.91539C23.6125 9.99773 22.8248 10.0523 22.0359 10.0791L22.0358 4.13438ZM28.3669 7.61852C27.8498 6.61727 27.2805 5.73875 26.6691 4.98813C28.5955 5.69258 30.3558 6.74438 31.8745 8.06711C30.987 8.45578 30.0434 8.78664 29.0395 9.06359C28.8297 8.56359 28.6056 8.08086 28.3669 7.61852ZM13.5953 7.61852C13.3577 8.07852 13.1347 8.55875 12.9258 9.05609C11.9088 8.77688 10.967 8.44867 10.0878 8.06711C11.6064 6.74445 13.3667 5.69266 15.2931 4.9882C14.6817 5.73875 14.1123 6.61727 13.5953 7.61852ZM12.1975 11.0435C11.3852 13.6025 10.912 16.5027 10.8227 19.5358H4.40945C4.64703 15.765 6.14805 12.332 8.49391 9.65633C9.63086 10.2063 10.8566 10.6659 12.1975 11.0435ZM10.8227 21.6452C10.912 24.6775 11.3849 27.577 12.1969 30.1356C10.8705 30.5116 9.63609 30.977 8.49695 31.5281C6.14938 28.8519 4.64711 25.4175 4.40945 21.6452H10.8227ZM12.925 32.123C13.1294 32.6114 13.353 33.0916 13.5953 33.5624C14.1123 34.5637 14.6817 35.4422 15.293 36.1928C13.3675 35.4886 11.6078 34.4374 10.0896 33.1156C10.9732 32.7312 11.9199 32.4006 12.925 32.123ZM29.0355 32.127C30.0349 32.4041 30.9821 32.7361 31.8684 33.1193C30.3511 34.4395 28.5929 35.4893 26.6691 36.1928C27.2805 35.4422 27.8498 34.5637 28.367 33.5624C28.6041 33.1031 28.8269 32.6235 29.0355 32.127ZM27.711 29.6406C25.8588 29.2598 23.9618 29.0426 22.0358 28.987V21.6452H29.0292C28.9398 24.5213 28.4863 27.2548 27.711 29.6406ZM22.0358 19.5358V12.1902C22.8985 12.1624 23.7599 12.1034 24.6183 12.0131C25.7006 11.8992 26.7295 11.7425 27.7125 11.5449C28.4869 13.9297 28.94 16.6615 29.0293 19.5358H22.0358ZM33.4571 31.5372L33.4624 31.5262C32.322 30.9787 31.0825 30.5143 29.7641 30.1395C30.5768 27.5799 31.0502 24.679 31.1395 21.6451H37.5527C37.3148 25.4219 35.8093 28.8597 33.4571 31.5372Z" fill="#0096D1"/>
</g>
</g>
<defs>
<clipPath id="clip0_415_10271">
<rect x="0.980469" y="0.589844" width="40" height="40" rx="20" fill="white"/>
</clipPath>
<clipPath id="clip1_415_10271">
<rect width="40" height="40" fill="white" transform="translate(0.980469 0.589844)"/>
</clipPath>
</defs>
</svg>
