<svg width="16" height="16" viewBox="0 0 16 16" fill="none" xmlns="http://www.w3.org/2000/svg">
<path d="M12.668 7.33464H8.66797V3.33464C8.66797 3.15782 8.59773 2.98826 8.47271 2.86323C8.34768 2.73821 8.17811 2.66797 8.0013 2.66797C7.82449 2.66797 7.65492 2.73821 7.5299 2.86323C7.40487 2.98826 7.33464 3.15782 7.33464 3.33464V7.33464H3.33464C3.15782 7.33464 2.98826 7.40487 2.86323 7.5299C2.73821 7.65492 2.66797 7.82449 2.66797 8.0013C2.66797 8.17811 2.73821 8.34768 2.86323 8.47271C2.98826 8.59773 3.15782 8.66797 3.33464 8.66797H7.33464V12.668C7.33464 12.8448 7.40487 13.0143 7.5299 13.1394C7.65492 13.2644 7.82449 13.3346 8.0013 13.3346C8.17811 13.3346 8.34768 13.2644 8.47271 13.1394C8.59773 13.0143 8.66797 12.8448 8.66797 12.668V8.66797H12.668C12.8448 8.66797 13.0143 8.59773 13.1394 8.47271C13.2644 8.34768 13.3346 8.17811 13.3346 8.0013C13.3346 7.82449 13.2644 7.65492 13.1394 7.5299C13.0143 7.40487 12.8448 7.33464 12.668 7.33464Z" fill="black"/>
</svg>
