<svg width="20" height="21" viewBox="0 0 20 21" fill="none" xmlns="http://www.w3.org/2000/svg">
<rect width="20" height="20" transform="translate(0 0.449219)" fill="#988686"/>
<path d="M15.3994 4.16797H4.60363C4.10896 4.16797 3.70703 4.57552 3.70703 5.07581V15.8519C3.70703 16.3522 4.10896 16.7597 4.60363 16.7597H15.3994C15.8941 16.7597 16.2988 16.3522 16.2988 15.8519V5.07581C16.2988 4.57552 15.8941 4.16797 15.3994 4.16797ZM7.51267 14.9609H5.64639V8.95172H7.51548V14.9609H7.51267ZM6.57953 8.13101C5.98086 8.13101 5.49742 7.64476 5.49742 7.0489C5.49742 6.45304 5.98086 5.96679 6.57953 5.96679C7.17539 5.96679 7.66164 6.45304 7.66164 7.0489C7.66164 7.64757 7.1782 8.13101 6.57953 8.13101ZM14.5084 14.9609H12.6421V12.0378C12.6421 11.3408 12.6281 10.4442 11.6725 10.4442C10.7 10.4442 10.551 11.2031 10.551 11.9872V14.9609H8.68472V8.95172H10.4751V9.77243H10.5004C10.7506 9.30024 11.3605 8.80275 12.2683 8.80275C14.1571 8.80275 14.5084 10.0479 14.5084 11.6668V14.9609Z" fill="#FFFEFD"/>
</svg>
