<svg width="20" height="21" viewBox="0 0 20 21" fill="none" xmlns="http://www.w3.org/2000/svg">
<rect width="20" height="20" transform="translate(0 0.449219)" fill="#988686"/>
<path d="M10.0078 7.2326C8.22026 7.2326 6.77838 8.67448 6.77838 10.4621C6.77838 12.2496 8.22026 13.6915 10.0078 13.6915C11.7954 13.6915 13.2373 12.2496 13.2373 10.4621C13.2373 8.67448 11.7954 7.2326 10.0078 7.2326ZM10.0078 12.5616C8.85265 12.5616 7.90827 11.6201 7.90827 10.4621C7.90827 9.30406 8.84984 8.36249 10.0078 8.36249C11.1658 8.36249 12.1074 9.30406 12.1074 10.4621C12.1074 11.6201 11.163 12.5616 10.0078 12.5616ZM14.1227 7.1005C14.1227 7.51929 13.7854 7.85376 13.3694 7.85376C12.9506 7.85376 12.6161 7.51648 12.6161 7.1005C12.6161 6.68453 12.9534 6.34725 13.3694 6.34725C13.7854 6.34725 14.1227 6.68453 14.1227 7.1005ZM16.2616 7.865C16.2138 6.85598 15.9833 5.96218 15.2441 5.22579C14.5077 4.4894 13.6139 4.25892 12.6049 4.20833C11.5649 4.14931 8.44792 4.14931 7.40797 4.20833C6.40176 4.25611 5.50796 4.48659 4.76876 5.22298C4.02956 5.95937 3.80189 6.85317 3.7513 7.86219C3.69228 8.90214 3.69228 12.0192 3.7513 13.0591C3.79908 14.0681 4.02956 14.9619 4.76876 15.6983C5.50796 16.4347 6.39894 16.6652 7.40797 16.7158C8.44792 16.7748 11.5649 16.7748 12.6049 16.7158C13.6139 16.668 14.5077 16.4375 15.2441 15.6983C15.9805 14.9619 16.211 14.0681 16.2616 13.0591C16.3206 12.0192 16.3206 8.90495 16.2616 7.865ZM14.9181 14.1749C14.6988 14.7258 14.2744 15.1502 13.7207 15.3723C12.8916 15.7011 10.9241 15.6252 10.0078 15.6252C9.09156 15.6252 7.12129 15.6983 6.29495 15.3723C5.74406 15.1531 5.31965 14.7286 5.09761 14.1749C4.76876 13.3458 4.84465 11.3783 4.84465 10.4621C4.84465 9.54578 4.77157 7.57551 5.09761 6.74917C5.31684 6.19828 5.74125 5.77387 6.29495 5.55183C7.1241 5.22298 9.09156 5.29887 10.0078 5.29887C10.9241 5.29887 12.8944 5.22579 13.7207 5.55183C14.2716 5.77106 14.696 6.19547 14.9181 6.74917C15.2469 7.57832 15.171 9.54578 15.171 10.4621C15.171 11.3783 15.2469 13.3486 14.9181 14.1749Z" fill="#FFFEFD"/>
</svg>
