<svg width="39" height="39" viewBox="0 0 39 39" fill="none" xmlns="http://www.w3.org/2000/svg">
<g clip-path="url(#clip0_415_9039)">
<g clip-path="url(#clip1_415_9039)">
<g clip-path="url(#clip2_415_9039)">
<path d="M16.0547 19.7733H16.9414L16.5614 18L16.0547 19.7733Z" fill="#020202"/>
<path d="M36.32 16.4818C35.6866 15.9751 34.9266 15.4684 34.9266 15.0884C34.7999 14.7084 35.18 13.8218 35.4333 13.0618C35.9399 11.9218 36.4466 10.7818 35.9399 9.8951C35.4333 9.00844 34.1666 8.88177 32.8999 8.62844C32.1399 8.50177 31.2533 8.50177 30.8733 8.12177C30.6199 7.86844 30.4933 6.98177 30.3666 6.0951C30.2399 4.82844 30.1133 3.56177 29.0999 3.0551C28.3399 2.54844 27.0733 3.0551 25.9333 3.56177C25.1733 3.94177 24.2866 4.1951 23.9066 4.06844C23.5266 3.94177 23.0199 3.30844 22.5133 2.6751C21.7533 1.66177 20.9933 0.648438 19.8533 0.648438C18.7133 0.648437 17.9533 1.66177 17.1933 2.6751C16.6866 3.30844 16.1799 4.06844 15.7999 4.06844C15.4199 4.1951 14.5333 3.8151 13.7733 3.56177C12.8866 3.18177 11.6199 2.80177 10.7333 3.18177C9.84661 3.8151 9.71995 5.08177 9.59328 6.22177C9.46661 6.98177 9.33995 7.86844 9.08661 8.24844C8.83328 8.50177 7.81995 8.62844 7.05995 8.7551C5.79328 8.88177 4.52661 9.00844 4.01995 10.0218C3.51328 10.9084 4.01995 12.0484 4.52661 13.1884C4.90661 13.9484 5.15995 14.7084 5.03328 15.2151C4.90661 15.5951 4.27328 16.1018 3.63995 16.6084C2.62661 17.3684 1.61328 18.1284 1.61328 19.2684C1.61328 20.4084 2.62661 21.1684 3.63995 21.9284C4.27328 22.4351 5.03328 22.9418 5.03328 23.3218C5.15995 23.7018 4.77995 24.5884 4.52661 25.3484C4.01995 26.4884 3.51328 27.6284 4.01995 28.5151C4.52661 29.4018 5.79328 29.5284 7.05995 29.7818C7.81995 29.9084 8.70661 29.9084 9.08661 30.2884C9.33995 30.5418 9.46661 31.4284 9.59328 32.3151C9.71995 33.5818 9.84661 34.8484 10.8599 35.3551C11.6199 35.8618 12.8866 35.3551 14.0266 34.8484C14.7866 34.4684 15.6733 34.2151 16.0533 34.3418C16.4333 34.4684 16.9399 35.1018 17.4466 35.7351C18.2066 36.7484 18.9666 37.7618 20.1066 37.7618C21.2466 37.7618 22.0066 36.7484 22.7666 35.7351C23.2733 35.1018 23.7799 34.3418 24.1599 34.3418C24.5399 34.2151 25.4266 34.5951 26.1866 34.8484C27.3266 35.3551 28.5933 35.7351 29.3533 35.3551C30.2399 34.8484 30.3666 33.5818 30.6199 32.3151C30.7466 31.5551 30.7466 30.6684 31.1266 30.2884C31.3799 30.0351 32.2666 29.9084 33.1533 29.7818C34.4199 29.6551 35.6866 29.5284 36.1933 28.5151C36.6999 27.6284 36.1933 26.4884 35.6866 25.3484C35.3066 24.5884 35.0533 23.8284 35.1799 23.3218C35.3066 22.9418 35.9399 22.4351 36.5733 21.9284C37.5866 21.1684 38.5999 20.4084 38.5999 19.2684C38.5999 18.1284 37.3333 17.2418 36.32 16.4818ZM10.4799 22.3084C9.08661 22.3084 8.07328 21.4218 7.94661 20.2818C7.94661 19.9018 8.19995 19.6484 8.57995 19.6484C8.83328 19.6484 9.21328 19.9018 9.21328 20.2818C9.21328 20.7884 9.84661 21.1684 10.4799 21.1684C11.1133 21.1684 11.7466 20.7884 11.7466 20.1551C11.7466 19.6484 11.3666 19.3951 10.4799 19.2684H10.3533C8.45328 18.8884 8.07328 17.8751 8.07328 17.1151C8.07328 15.8484 9.21328 14.8351 10.6066 14.8351C11.9999 14.8351 13.0133 15.7218 13.1399 16.8618C13.1399 17.2418 12.8866 17.4951 12.5066 17.4951C12.1266 17.4951 11.8733 17.2418 11.8733 16.8618C11.8733 16.3551 11.2399 15.9751 10.6066 15.9751C9.97328 15.9751 9.33995 16.3551 9.33995 16.9884C9.33995 17.4951 9.71995 17.7484 10.6066 17.8751V18.5084L10.7333 17.8751C12.6333 18.2551 13.0133 19.2684 13.0133 20.0284C13.0133 21.2951 11.8733 22.3084 10.4799 22.3084ZM18.2066 22.3084H18.0799C17.8266 22.3084 17.5733 22.0551 17.4466 21.8018L17.1933 21.0418H15.6733L15.4199 21.8018C15.2933 22.1818 15.0399 22.3084 14.6599 22.3084C14.2799 22.1818 14.1533 21.9284 14.1533 21.5484L15.7999 15.2151C15.9266 14.7084 16.9399 14.7084 17.0666 15.2151L18.7133 21.5484C18.8399 21.8018 18.5866 22.1818 18.2066 22.3084ZM25.0466 22.3084H21.2466C20.8666 22.3084 20.6133 22.0551 20.6133 21.6751V15.3418C20.6133 14.9618 20.8666 14.7084 21.2466 14.7084C21.6266 14.7084 21.8799 14.9618 21.8799 15.3418V21.0418H25.0466C25.4266 21.0418 25.6799 21.2951 25.6799 21.6751C25.6799 22.0551 25.4266 22.3084 25.0466 22.3084ZM31.3799 17.8751C31.7599 17.8751 32.0133 18.1284 32.0133 18.5084C32.0133 18.8884 31.7599 19.1418 31.3799 19.1418H28.2133V21.0418H31.3799C31.7599 21.0418 32.0133 21.2951 32.0133 21.6751C32.0133 22.0551 31.7599 22.3084 31.3799 22.3084H27.5799C27.1999 22.3084 26.9466 22.0551 26.9466 21.6751V15.3418C26.9466 14.9618 27.1999 14.7084 27.5799 14.7084H31.3799C31.7599 14.7084 32.0133 14.9618 32.0133 15.3418C32.0133 15.7218 31.7599 15.9751 31.3799 15.9751H28.2133V17.8751H31.3799Z" fill="black"/>
</g>
</g>
</g>
<defs>
<clipPath id="clip0_415_9039">
<rect width="38" height="38" fill="white" transform="translate(0.980469 0.140625)"/>
</clipPath>
<clipPath id="clip1_415_9039">
<rect width="38" height="38" fill="white" transform="translate(0.980469 0.140625)"/>
</clipPath>
<clipPath id="clip2_415_9039">
<rect width="38" height="38" fill="white" transform="translate(0.980469 0.140625)"/>
</clipPath>
</defs>
</svg>
