<svg width="19" height="19" viewBox="0 0 19 19" fill="none" xmlns="http://www.w3.org/2000/svg">
<path d="M13.3857 18.4492H5.28111C3.88482 18.4492 2.76172 17.3261 2.76172 15.9298V2.96861C2.76172 1.57232 3.88482 0.449219 5.28111 0.449219H13.3857C14.782 0.449219 15.9051 1.57232 15.9051 2.96861V15.9298C15.9051 17.3261 14.782 18.4492 13.3857 18.4492ZM5.28111 2.27047C4.88651 2.27047 4.58297 2.57401 4.58297 2.96861V15.9298C4.58297 16.3244 4.88651 16.628 5.28111 16.628H13.3857C13.7803 16.628 14.0838 16.3244 14.0838 15.9298V2.96861C14.0838 2.57401 13.7803 2.27047 13.3857 2.27047H5.28111Z" fill="#FFFEFD"/>
<path d="M9.34812 15.2314C8.8321 15.2314 8.4375 14.8368 8.4375 14.3208C8.4375 13.8048 8.8321 13.4102 9.34812 13.4102C9.86414 13.4102 10.2587 13.8048 10.2587 14.3208C10.2587 14.8368 9.86414 15.2314 9.34812 15.2314Z" fill="#FFFEFD"/>
</svg>
